<svg width="28" height="29" viewBox="0 0 28 29" fill="none" xmlns="http://www.w3.org/2000/svg">
<path d="M3.1354 0.234375C1.42389 0.234375 0.036438 1.62183 0.036438 3.33333C0.036438 5.04484 1.42389 6.43229 3.1354 6.43229C4.8469 6.43229 6.23435 5.04484 6.23435 3.33333C6.23435 1.62183 4.8469 0.234375 3.1354 0.234375Z" fill="#29292B"/>
<path d="M0.21873 8.98438C0.118053 8.98438 0.036438 9.06599 0.036438 9.16667V28.125C0.036438 28.2257 0.118053 28.3073 0.21873 28.3073H6.05206C6.15274 28.3073 6.23435 28.2257 6.23435 28.125V9.16667C6.23435 9.06599 6.15274 8.98438 6.05206 8.98438H0.21873Z" fill="#29292B"/>
<path d="M9.6979 8.98438C9.59722 8.98438 9.5156 9.06599 9.5156 9.16667V28.125C9.5156 28.2257 9.59722 28.3073 9.6979 28.3073H15.5312C15.6319 28.3073 15.7135 28.2257 15.7135 28.125V17.9167C15.7135 17.1915 16.0016 16.496 16.5144 15.9832C17.0272 15.4704 17.7227 15.1823 18.4479 15.1823C19.1731 15.1823 19.8686 15.4704 20.3814 15.9832C20.8942 16.496 21.1823 17.1915 21.1823 17.9167V28.125C21.1823 28.2257 21.2639 28.3073 21.3646 28.3073H27.1979C27.2986 28.3073 27.3802 28.2257 27.3802 28.125V15.5545C27.3802 12.0155 24.3022 9.24687 20.781 9.56698C19.6951 9.6657 18.6214 9.93566 17.6188 10.3653L15.7135 11.1819V9.16667C15.7135 9.06599 15.6319 8.98438 15.5312 8.98438H9.6979Z" fill="#29292B"/>
</svg>
