<svg width="28" height="28" viewBox="0 0 28 28" fill="none" xmlns="http://www.w3.org/2000/svg">
<path d="M14 9.26044C11.3824 9.26044 9.26044 11.3824 9.26044 14C9.26044 16.6176 11.3824 18.7396 14 18.7396C16.6176 18.7396 18.7396 16.6176 18.7396 14C18.7396 11.3824 16.6176 9.26044 14 9.26044Z" fill="#29292B"/>
<path fill-rule="evenodd" clip-rule="evenodd" d="M6.37227 0.993834C11.4008 0.431824 16.5993 0.431824 21.6278 0.993834C24.3963 1.30325 26.6293 3.4846 26.9542 6.2628C27.5555 11.4034 27.5555 16.5966 26.9542 21.7373C26.6293 24.5155 24.3963 26.6968 21.6278 27.0062C16.5993 27.5682 11.4008 27.5682 6.37227 27.0062C3.60377 26.6968 1.37078 24.5155 1.04584 21.7373C0.444599 16.5966 0.444599 11.4034 1.04584 6.2628C1.37078 3.4846 3.60377 1.30325 6.37227 0.993834ZM21.2917 5.25003C20.4863 5.25003 19.8334 5.90294 19.8334 6.70836C19.8334 7.51377 20.4863 8.16669 21.2917 8.16669C22.0971 8.16669 22.75 7.51377 22.75 6.70836C22.75 5.90294 22.0971 5.25003 21.2917 5.25003ZM7.07294 14C7.07294 10.1743 10.1743 7.07294 14 7.07294C17.8257 7.07294 20.9271 10.1743 20.9271 14C20.9271 17.8257 17.8257 20.9271 14 20.9271C10.1743 20.9271 7.07294 17.8257 7.07294 14Z" fill="#29292B"/>
</svg>
