<svg width="520" height="385" viewBox="0 0 520 385" fill="none" xmlns="http://www.w3.org/2000/svg">
<g clip-path="url(#clip0_202_52)">
<path d="M118 38.889L141.151 1.63696L148.26 44.9223L183.898 19.3393L173.936 62.0634L216.637 52.0781L191.077 87.7166L234.363 94.849L197.087 118L234.363 141.151L191.077 148.26L216.637 183.899L173.936 173.937L183.898 216.637L148.26 191.078L141.151 234.363L118 197.088L94.8488 234.363L87.7164 191.078L52.0779 216.637L62.0632 173.937L19.3391 183.899L44.9221 148.26L1.63676 141.151L38.8888 118L1.63676 94.849L44.9221 87.7166L19.3391 52.0781L62.0632 62.0634L52.0779 19.3393L87.7164 44.9223L94.8488 1.63696L118 38.889Z" stroke="#7B00F8" stroke-width="1.66048" stroke-miterlimit="10"/>
</g>
<g clip-path="url(#clip1_202_52)">
<path d="M402 187.889L425.151 150.637L432.26 193.922L467.898 168.339L457.936 211.063L500.637 201.078L475.077 236.717L518.363 243.849L481.087 267L518.363 290.151L475.077 297.26L500.637 332.899L457.936 322.937L467.898 365.637L432.26 340.078L425.151 383.363L402 346.088L378.849 383.363L371.716 340.078L336.078 365.637L346.063 322.937L303.339 332.899L328.922 297.26L285.637 290.151L322.889 267L285.637 243.849L328.922 236.717L303.339 201.078L346.063 211.063L336.078 168.339L371.716 193.922L378.849 150.637L402 187.889Z" stroke="#7B00F8" stroke-width="1.66048" stroke-miterlimit="10"/>
</g>
<defs>
<clipPath id="clip0_202_52">
<rect width="236" height="236" fill="white"/>
</clipPath>
<clipPath id="clip1_202_52">
<rect width="236" height="236" fill="white" transform="translate(284 149)"/>
</clipPath>
</defs>
</svg>
