<svg width="30" height="26" viewBox="0 0 30 26" fill="none" xmlns="http://www.w3.org/2000/svg">
<path fill-rule="evenodd" clip-rule="evenodd" d="M24.9546 23.8605L24.9556 23.858L24.9809 23.7946L29.3542 1.74592V1.6743C29.3542 1.12494 29.1512 0.645357 28.7095 0.357687C28.3229 0.105889 27.8784 0.0879564 27.5668 0.111611C27.2372 0.136629 26.9264 0.218901 26.7112 0.287385C26.6005 0.322618 26.5079 0.356566 26.4416 0.382242C26.4084 0.395129 26.3814 0.406064 26.3618 0.414211L26.3426 0.422315L1.95949 9.98743L1.95278 9.98984C1.93961 9.99463 1.92219 10.0011 1.90116 10.0093C1.85923 10.0256 1.80215 10.049 1.73509 10.0794C1.60343 10.1391 1.42153 10.2311 1.23704 10.3575C0.923716 10.572 0.327091 11.08 0.427836 11.8853C0.511282 12.5524 0.9711 12.976 1.2811 13.1954C1.44727 13.313 1.60625 13.3977 1.72266 13.4532C1.78165 13.4812 1.83176 13.5028 1.86907 13.518C1.88778 13.5256 1.90342 13.5317 1.91552 13.5363L1.93102 13.542L1.94092 13.5457L6.2069 14.9819C6.1925 15.2495 6.21905 15.5224 6.29003 15.7917L8.4269 23.8977C8.68027 24.8588 9.54976 25.5283 10.5437 25.5276C11.4347 25.527 12.2248 24.988 12.5605 24.1838L15.8967 20.6166L21.6265 25.0095L21.7079 25.045C22.2285 25.2722 22.7149 25.3442 23.1596 25.2834C23.6036 25.2228 23.9565 25.0366 24.2216 24.8245C24.4824 24.6158 24.6612 24.3803 24.7736 24.2029C24.8307 24.1129 24.8733 24.0337 24.9028 23.9741C24.9176 23.9442 24.9293 23.9188 24.9381 23.8991L24.9491 23.8737L24.953 23.8643L24.9546 23.8605ZM8.4052 15.2341C8.35663 15.0499 8.43287 14.8554 8.59371 14.7532L23.0633 5.56441C23.0633 5.56441 23.9144 5.04773 23.884 5.56441C23.884 5.56441 24.0358 5.65565 23.5798 6.08109C23.1472 6.48515 13.2669 16.0242 12.2672 16.9894C12.2095 17.0452 12.175 17.1091 12.1547 17.1867L10.5421 23.3401L8.4052 15.2341Z" fill="#29292B"/>
</svg>
