<svg width="16" height="28" viewBox="0 0 16 28" fill="none" xmlns="http://www.w3.org/2000/svg">
<path d="M11.3334 0.692688C9.54452 0.692688 7.82896 1.4033 6.56407 2.66819C5.29917 3.93309 4.58856 5.64865 4.58856 7.43748V11.1927H0.979187C0.797968 11.1927 0.651062 11.3396 0.651062 11.5208V16.4791C0.651062 16.6604 0.797969 16.8073 0.979187 16.8073H4.58856V26.9791C4.58856 27.1604 4.73547 27.3073 4.91669 27.3073H9.87502C10.0562 27.3073 10.2031 27.1604 10.2031 26.9791V16.8073H13.8445C13.9951 16.8073 14.1263 16.7048 14.1628 16.5587L15.4024 11.6004C15.4542 11.3933 15.2975 11.1927 15.0841 11.1927H10.2031V7.43748C10.2031 7.13773 10.3222 6.85026 10.5342 6.6383C10.7461 6.42635 11.0336 6.30727 11.3334 6.30727H15.125C15.3062 6.30727 15.4531 6.16036 15.4531 5.97915V1.02081C15.4531 0.839595 15.3062 0.692688 15.125 0.692688H11.3334Z" fill="#29292B"/>
</svg>
