<svg width="161" height="90" viewBox="0 0 161 90" fill="none" xmlns="http://www.w3.org/2000/svg">
<path d="M80.5434 7.60291L42.8497 72.9243H52.5686H118.255L80.5434 7.60291ZM109.047 62.0051H61.7759L85.4117 21.08L109.047 62.0051ZM83.9653 18.5574L58.8655 62.0051H52.057L80.5434 12.648L83.9653 18.5574ZM47.2064 70.4018L50.593 64.5276H57.4015L54.0149 70.4018H47.2064ZM56.9429 70.4018L60.3295 64.5276H110.494L113.88 70.4018H56.9429Z" fill="url(#paint0_linear_56_267)"/>
<path d="M156.972 42.4069C156.319 42.4069 154.467 46.7817 149.81 49.8511C149.158 47.6284 148.24 45.7585 148.24 43.4653C148.24 39.3023 153.25 35.5096 153.832 34.9451C153.832 34.4512 151.116 32.2286 150.463 32.2286C149.669 32.2286 143.796 37.8205 143.796 41.8248C143.796 42.0718 143.848 42.3011 143.866 42.548C142.349 43.9416 135.117 55.5135 133.918 54.2964C130.831 51.2094 148.752 17.3226 152.685 13.3889C153.338 12.7362 149.034 10.0196 148.17 10.884C146.812 12.2423 140.427 23.5673 135.417 34.7511C134.271 33.3928 132.701 32.3873 130.761 32.3873C126.033 32.3873 122.029 39.1788 119.736 45.6174C117.002 49.4277 113.016 55.196 112.134 54.314C110.053 52.2325 116.861 38.4732 118.872 36.4798C119.454 35.9153 116.085 33.1811 115.08 33.9749C114.727 34.1866 114.357 34.6276 114.004 35.1921C112.857 33.7633 110.988 32.405 108.994 32.405C104.32 32.405 100.299 39.1259 97.9527 45.5469C95.06 49.3395 90.2799 55.2489 86.3465 55.2489C85.8526 55.2489 84.6356 54.6845 84.6356 52.6029C84.6356 51.033 84.9178 49.3748 85.4293 47.6637C86.0819 47.9459 86.7875 48.087 87.7223 48.087C94.2486 48.087 98.182 40.7135 98.182 37.3442C98.182 35.051 96.0301 32.405 93.7371 32.405C88.5337 32.405 83.5067 39.4963 81.1784 46.6053C78.462 50.3626 74.9872 55.1784 74.317 54.3317C71.142 51.1564 89.0452 17.4108 93.0668 13.3889C93.79 12.6656 89.2745 10.0902 88.4808 10.884C86.6464 12.7186 76.1337 31.9816 71.4595 45.3705C68.7255 49.1807 64.5804 55.2137 63.6809 54.314C61.5995 52.2325 68.408 38.4732 70.4188 36.4798C71.0009 35.9153 67.6319 33.1811 66.6265 33.9749C66.2738 34.1866 65.9033 34.6276 65.5506 35.1921C64.4041 33.7633 62.5344 32.405 60.5412 32.405C55.9022 32.405 51.8983 39.0377 49.5523 45.4057C48.1765 47.1874 46.2539 49.1455 43.6963 49.463C43.6963 47.7519 43.5552 46.4465 43.2024 45.882C49.7287 31.2584 57.6837 16.2819 60.5412 13.4242C61.1938 12.7715 56.89 10.0549 56.0257 10.9193C53.8209 13.0714 45.6366 28.3654 38.8104 44.2768C37.6815 44.2062 36.4821 44.3121 35.3356 44.7883C35.3356 44.7883 31.9137 48.2105 33.3248 48.8809C33.3248 48.8809 34.2067 48.3517 36.4645 48.1576C33.9951 51.5445 31.3316 55.0549 30.7496 54.314C27.5746 51.1564 45.4954 17.4108 49.4994 13.3889C50.2226 12.6656 45.7071 10.0902 44.9134 10.884C43.079 12.7186 32.5663 31.9816 27.8921 45.3705C25.1581 49.1807 21.013 55.2137 20.1135 54.314C18.0321 52.2325 24.8406 38.4732 26.8514 36.4798C27.4335 35.9153 24.0645 33.1811 23.0591 33.9749C22.7063 34.1866 22.3359 34.6276 21.9832 35.1921C20.8366 33.7633 18.9669 32.405 16.9738 32.405C9.60084 32.405 3.79773 49.2513 3.79773 55.0549C3.79773 57.2776 5.94964 60.294 7.44893 60.294C9.45973 60.294 12.8287 55.4959 15.6862 50.3273C15.2628 52.1266 15.0335 53.6966 15.0335 55.0549C15.0335 57.2776 16.9738 60.294 18.4731 60.294C20.2193 60.294 23.4648 55.884 26.1282 51.4563C25.8284 52.8146 25.6343 54.0671 25.6343 55.0549C25.6343 57.5598 27.6452 60.294 29.0739 60.294C30.3615 60.294 32.4429 57.9126 34.5066 54.9138C31.1552 63.8397 28.774 72.0424 28.774 77.2109C28.774 79.4336 31.3493 82.45 32.5663 82.45C37.8756 82.45 42.6733 63.3105 43.5199 52.6382C45.2309 52.4089 46.7654 51.4387 48.053 50.2039C47.5768 52.1266 47.3122 53.8554 47.3122 55.0725C47.3122 57.2952 49.4641 60.3117 50.9634 60.3117C52.9742 60.3117 56.3432 55.5135 59.2007 50.345C58.7773 52.1443 58.548 53.7143 58.548 55.0725C58.548 57.2952 60.4883 60.3117 61.9876 60.3117C63.7338 60.3117 66.9793 55.9016 69.6427 51.474C69.3429 52.8322 69.1488 54.0847 69.1488 55.0725C69.1488 57.5774 71.1597 60.3117 72.5884 60.3117C74.2464 60.3117 77.2803 56.2897 79.8731 52.0737C79.8026 52.7617 79.7497 53.432 79.7497 54.0847C79.7497 58.0184 83.1186 60.3117 84.3357 60.3117C88.6395 60.3117 93.1197 55.6017 96.2771 51.0153C95.9243 52.6206 95.7302 54.0318 95.7302 55.0902C95.7302 57.3128 97.8822 60.3293 99.3814 60.3293C101.392 60.3293 104.761 55.5312 107.619 50.3626C107.195 52.1619 106.966 53.7319 106.966 55.0902C106.966 57.3128 108.906 60.3293 110.406 60.3293C112.134 60.3293 115.344 56.0075 117.99 51.6151C117.726 52.9734 117.567 54.1905 117.567 55.1078C117.567 57.3305 119.719 60.3469 121.148 60.3469C123.158 60.3469 126.739 55.4077 129.596 50.0275C129.103 52.109 128.803 53.8201 128.803 55.1078C128.803 57.6127 130.813 60.3469 132.242 60.3469C135.258 60.3469 142.508 47.6813 143.866 43.7123C144.254 46.8346 145.454 49.3395 145.983 51.7562C144.184 52.55 141.979 52.6911 139.756 52.9734C139.474 53.185 138.61 54.1905 138.61 54.9843C138.61 56.4838 142.261 60.5057 145.207 60.5057C147.429 60.5057 150.357 57.8597 150.357 53.8377C150.357 53.4849 150.287 53.1145 150.287 52.8322C155.472 48.7927 158.33 42.4069 156.972 42.4069ZM94.7778 35.8977C95.5715 36.6915 91.2677 45.2823 86.3994 45.2823H86.3289C88.9747 39.5492 93.6313 34.7511 94.7778 35.8977ZM9.15987 54.3846C9.08932 54.3846 9.01876 54.314 8.94821 54.2435C8.87765 54.0318 8.8071 53.7495 8.8071 53.238C8.8071 46.7111 15.4039 35.686 18.2614 35.686C19.1963 35.686 19.9018 36.5504 20.6955 37.3971L19.1963 40.4136C16.3388 45 11.1707 54.3846 9.15987 54.3846ZM33.6599 76.4524C33.3072 76.0996 33.166 75.5175 33.166 74.5825C33.166 70.5782 36.3939 61.5465 40.6096 51.6504C39.463 61.3348 35.4591 78.234 33.6599 76.4524ZM52.7273 54.3846C52.6567 54.3846 52.5862 54.314 52.5156 54.2435C52.4451 54.0318 52.3745 53.7495 52.3745 53.238C52.3745 46.7111 58.9714 35.686 61.8288 35.686C62.7637 35.686 63.4692 36.5504 64.263 37.3971L62.7637 40.4136C59.8886 45 54.7381 54.3846 52.7273 54.3846ZM101.163 54.3846C101.092 54.3846 101.022 54.314 100.951 54.2435C100.881 54.0318 100.81 53.7495 100.81 53.238C100.81 46.7111 107.407 35.686 110.264 35.686C111.199 35.686 111.905 36.5504 112.699 37.3971L111.199 40.4136C108.324 45 103.174 54.3846 101.163 54.3846ZM123.017 54.3846C122.947 54.3846 122.664 54.314 122.664 53.238C122.664 46.7111 129.05 35.686 132.119 35.686C132.983 35.686 133.689 36.4093 134.341 37.1854L132.983 40.5547C130.037 45.2117 124.94 54.3846 123.017 54.3846ZM144.801 56.6072C144.148 56.6072 143.443 56.325 142.72 55.6723C144.078 55.6723 145.224 55.4606 146.441 54.9491C146.371 55.7429 146.018 56.6072 144.801 56.6072Z" fill="white"/>
<defs>
<linearGradient id="paint0_linear_56_267" x1="42.8497" y1="40.2636" x2="118.255" y2="40.2636" gradientUnits="userSpaceOnUse">
<stop stop-color="#8325FB"/>
<stop offset="1" stop-color="#00FFEA"/>
</linearGradient>
</defs>
</svg>
