<svg width="105" height="87" viewBox="0 0 105 87" fill="none" xmlns="http://www.w3.org/2000/svg">
<path fill-rule="evenodd" clip-rule="evenodd" d="M0.0186157 28.1083V3.60776C0.0186157 2.81801 0.332863 2.0606 0.892235 1.50216C1.45161 0.943726 2.21027 0.630005 3.00135 0.630005C3.79242 0.630005 4.5511 0.943726 5.11047 1.50216C5.66984 2.0606 5.98409 2.81801 5.98409 3.60776V15.5565C8.66267 13.5445 11.9395 12.4869 15.2909 12.5527C18.6424 12.6186 21.875 13.8041 24.4722 15.9197C27.0694 18.0354 28.8813 20.9591 29.6184 24.2237C30.3554 27.4882 29.9751 30.9053 28.5382 33.9287C27.1012 36.9521 24.6906 39.4074 21.6916 40.9023C18.6925 42.3971 15.2781 42.8452 11.9939 42.1749C8.70973 41.5047 5.74539 39.7548 3.57456 37.2048C1.40374 34.6549 0.151734 31.4521 0.0186157 28.1083ZM86.4992 12.5787C89.4625 12.5675 92.3624 13.4345 94.8316 15.0699C97.3009 16.7053 99.2286 19.0355 100.37 21.7654C101.512 24.4953 101.817 27.5021 101.245 30.4049C100.674 33.3077 99.2529 35.976 97.1615 38.0718C95.0701 40.1676 92.4028 41.5966 89.4973 42.1779C86.5918 42.7591 83.5789 42.4665 80.8401 41.337C78.1013 40.2075 75.7599 38.292 74.1125 35.833C72.465 33.3741 71.5855 30.4823 71.5855 27.524C71.5805 23.5685 73.1483 19.7728 75.9447 16.9706C78.741 14.1683 82.5371 12.5887 86.4992 12.5787ZM59.6545 39.4727C56.9598 41.4983 53.6589 42.556 50.2867 42.4744C46.9145 42.3927 43.6688 41.1765 41.0756 39.0228C38.4825 36.8692 36.6939 33.9044 35.9997 30.6089C35.3056 27.3134 35.7467 23.8805 37.2514 20.8666C38.7561 17.8527 41.2363 15.4344 44.2899 14.0038C47.3436 12.5732 50.7917 12.2141 54.0754 12.9847C57.359 13.7553 60.2858 15.6104 62.3812 18.2494C64.4766 20.8884 65.6179 24.1565 65.62 27.524V39.4727C65.62 39.8638 65.5429 40.251 65.393 40.6123C65.2431 40.9735 65.0234 41.3018 64.7464 41.5783C64.4694 41.8548 64.1406 42.0742 63.7787 42.2238C63.4168 42.3735 63.029 42.4505 62.6373 42.4505C62.2456 42.4505 61.8577 42.3735 61.4958 42.2238C61.134 42.0742 60.8051 41.8548 60.5282 41.5783C60.2512 41.3018 60.0315 40.9735 59.8816 40.6123C59.7317 40.251 59.6545 39.8638 59.6545 39.4727ZM14.9134 18.685C16.6931 18.6775 18.4349 19.1978 19.918 20.1798C21.4011 21.1619 22.5587 22.5614 23.2441 24.2011C23.9294 25.8407 24.1117 27.6466 23.7677 29.3898C23.4237 31.133 22.569 32.735 21.3119 33.9926C20.0548 35.2502 18.452 36.1069 16.7066 36.454C14.9612 36.8011 13.1519 36.6229 11.5081 35.9422C9.86423 35.2614 8.4599 34.1087 7.4731 32.6301C6.4863 31.1516 5.9615 29.4138 5.96522 27.6371C5.96522 25.2661 6.90737 22.992 8.58494 21.3137C10.2625 19.6354 12.5385 18.69 14.9134 18.685ZM86.4992 18.685C88.2789 18.6775 90.0206 19.1978 91.5038 20.1798C92.9869 21.1619 94.1445 22.5614 94.8298 24.2011C95.5152 25.8407 95.6974 27.6466 95.3535 29.3898C95.0095 31.133 94.1548 32.735 92.8977 33.9926C91.6406 35.2502 90.0378 36.1069 88.2924 36.454C86.547 36.8011 84.7377 36.6229 83.0938 35.9422C81.45 35.2614 80.0457 34.1087 79.0589 32.6301C78.0721 31.1516 77.5473 29.4138 77.551 27.6371C77.551 25.2661 78.4931 22.992 80.1707 21.3137C81.8483 19.6354 84.1243 18.69 86.4992 18.685ZM50.6308 18.685C52.4105 18.6775 54.1522 19.1978 55.6354 20.1798C57.1185 21.1619 58.2761 22.5614 58.9614 24.2011C59.6468 25.8407 59.8291 27.6466 59.4851 29.3898C59.1411 31.133 58.2864 32.735 57.0293 33.9926C55.7722 35.2502 54.1694 36.1069 52.424 36.454C50.6786 36.8011 48.8693 36.6229 47.2255 35.9422C45.5816 35.2614 44.1773 34.1087 43.1905 32.6301C42.2037 31.1516 41.6789 29.4138 41.6826 27.6371C41.6826 25.2661 42.6247 22.992 44.3023 21.3137C45.9799 19.6354 48.2559 18.69 50.6308 18.685Z" fill="white"/>
<path fill-rule="evenodd" clip-rule="evenodd" d="M105 69.3101C104.995 64.7181 103.166 60.3156 99.9131 57.0685C96.6606 53.8215 92.2507 51.9951 87.651 51.9901H17.349C12.7477 51.9901 8.33495 53.8149 5.08138 57.063C1.82782 60.3111 0 64.7165 0 69.3101C0 73.9036 1.82782 78.309 5.08138 81.5572C8.33495 84.8053 12.7477 86.63 17.349 86.63H87.651C92.2507 86.6251 96.6606 84.7987 99.9131 81.5516C103.166 78.3046 104.995 73.9021 105 69.3101Z" fill="#FAE700"/>
<path d="M22.786 75.6048C23.6208 75.61 24.448 75.4456 25.2171 75.1216C25.9863 74.7976 26.6814 74.3208 27.2601 73.7201C27.3578 73.6206 27.4348 73.5027 27.4867 73.3733C27.5385 73.2439 27.5642 73.1056 27.5622 72.9662C27.5622 72.6813 27.4488 72.4081 27.247 72.2066C27.0452 72.0052 26.7715 71.892 26.4861 71.892C26.3407 71.8924 26.1969 71.9226 26.0637 71.981C25.9305 72.0394 25.8108 72.1246 25.7121 72.2312C25.3387 72.634 24.8862 72.9557 24.3827 73.1762C23.8793 73.3967 23.3357 73.5113 22.786 73.5128C21.6745 73.5128 20.6085 73.072 19.8225 72.2874C19.0366 71.5027 18.5951 70.4385 18.5951 69.3289C18.5951 68.2192 19.0366 67.155 19.8225 66.3704C20.6085 65.5857 21.6745 65.1449 22.786 65.1449C23.3357 65.1465 23.8793 65.2611 24.3827 65.4816C24.8862 65.702 25.3387 66.0237 25.7121 66.4265C25.8108 66.5332 25.9305 66.6183 26.0637 66.6767C26.1969 66.7351 26.3407 66.7654 26.4861 66.7657C26.7715 66.7657 27.0452 66.6526 27.247 66.4511C27.4488 66.2496 27.5622 65.9764 27.5622 65.6915C27.5642 65.5521 27.5385 65.4138 27.4867 65.2844C27.4348 65.155 27.3578 65.0372 27.2601 64.9376C26.6814 64.337 25.9863 63.8601 25.2171 63.5361C24.448 63.2121 23.6208 63.0477 22.786 63.053C21.1137 63.053 19.5099 63.7162 18.3275 64.8967C17.145 66.0771 16.4807 67.6782 16.4807 69.3477C16.4807 71.0172 17.145 72.6183 18.3275 73.7988C19.5099 74.9793 21.1137 75.6424 22.786 75.6424V75.6048Z" fill="#341656"/>
<path d="M40.3234 73.9085L35.8115 63.7314C35.7281 63.5326 35.5878 63.3629 35.4081 63.2435C35.2284 63.1241 35.0174 63.0604 34.8015 63.0604C34.5857 63.0604 34.3746 63.1241 34.1949 63.2435C34.0152 63.3629 33.8749 63.5326 33.7915 63.7314L29.2797 73.9085C29.2214 74.0409 29.1898 74.1835 29.1868 74.3281C29.1837 74.4726 29.2092 74.6164 29.2618 74.7512C29.3144 74.8859 29.3931 75.009 29.4933 75.1134C29.5935 75.2178 29.7134 75.3015 29.846 75.3597C29.9786 75.4178 30.1215 75.4494 30.2663 75.4524C30.4111 75.4555 30.5551 75.43 30.6901 75.3775C30.8251 75.325 30.9484 75.2465 31.053 75.1464C31.1576 75.0463 31.2414 74.9267 31.2996 74.7943L32.1869 72.74H37.5105L38.4167 74.7943C38.5327 75.0584 38.7486 75.2661 39.0174 75.372C39.2861 75.4779 39.5859 75.4735 39.8514 75.3597C40.1174 75.24 40.3257 75.0209 40.4316 74.7496C40.5375 74.4782 40.5325 74.1762 40.4177 73.9085H40.3234ZM33.1497 70.5538L34.811 66.7845L36.4534 70.5538H33.1497Z" fill="#341656"/>
<path d="M47.9881 75.6048C49.7627 75.6048 52.9342 74.9074 52.9342 71.9297C52.9342 68.9519 50.2724 68.6692 47.9881 68.1604C46.4779 67.8777 45.4585 67.7457 45.4585 66.7469C45.4585 65.748 46.1758 65.0319 48.007 65.0319C49.1484 65.0556 50.2653 65.3667 51.254 65.9365C51.4053 66.0176 51.5733 66.0628 51.7449 66.0684C52.0237 66.0635 52.2898 65.9508 52.487 65.7539C52.6843 65.557 52.7972 65.2914 52.8021 65.013C52.8013 64.8218 52.7504 64.6342 52.6543 64.4689C52.5582 64.3035 52.4204 64.1662 52.2546 64.0707C50.99 63.359 49.5713 62.9645 48.1203 62.921C45.9304 62.921 43.2686 64.0141 43.2686 66.8411C43.2686 69.6681 46.1192 70.1958 47.9881 70.4973C49.8571 70.7989 50.7443 70.9685 50.7443 71.9108C50.7443 73.1735 48.8565 73.3997 48.0636 73.3997C46.8651 73.35 45.6949 73.0208 44.6467 72.4385C44.485 72.3539 44.3041 72.3125 44.1217 72.3184C43.9392 72.3243 43.7613 72.3773 43.6055 72.4722C43.4496 72.5671 43.321 72.7006 43.2322 72.8599C43.1434 73.0191 43.0974 73.1986 43.0987 73.3809C43.1009 73.5692 43.1526 73.7536 43.2487 73.9157C43.3447 74.0778 43.4818 74.2118 43.6462 74.3043C44.9717 75.0576 46.4633 75.472 47.9881 75.5105V75.6048Z" fill="#341656"/>
<path d="M57.2572 75.4728C57.5476 75.4728 57.8261 75.3576 58.0314 75.1526C58.2368 74.9477 58.3521 74.6696 58.3521 74.3797V64.3534C58.3521 64.0634 58.2368 63.7854 58.0314 63.5804C57.8261 63.3754 57.5476 63.2603 57.2572 63.2603C56.9668 63.2603 56.6883 63.3754 56.483 63.5804C56.2776 63.7854 56.1623 64.0634 56.1623 64.3534V74.3797C56.1623 74.6696 56.2776 74.9477 56.483 75.1526C56.6883 75.3576 56.9668 75.4728 57.2572 75.4728Z" fill="#341656"/>
<path d="M71.6044 63.2037C71.314 63.2037 71.0355 63.3189 70.8302 63.5239C70.6248 63.7289 70.5095 64.0069 70.5095 64.2968V71.515L63.5624 63.656L63.4113 63.4864C63.2184 63.3316 62.9792 63.2454 62.7317 63.2414C62.4413 63.2414 62.1628 63.3566 61.9575 63.5616C61.7521 63.7666 61.6368 64.0446 61.6368 64.3345V74.3609C61.6368 74.6508 61.7521 74.9288 61.9575 75.1338C62.1628 75.3388 62.4413 75.454 62.7317 75.454C63.0221 75.454 63.3006 75.3388 63.506 75.1338C63.7113 74.9288 63.8266 74.6508 63.8266 74.3609V67.0861L70.6794 74.8509C70.7715 75.0334 70.9113 75.1877 71.0842 75.2972C71.257 75.4067 71.4564 75.4674 71.661 75.4728C71.9532 75.4679 72.2317 75.3486 72.4365 75.1406C72.6413 74.9326 72.756 74.6526 72.756 74.3609V64.3345C72.756 64.0446 72.6406 63.7666 72.4353 63.5616C72.2299 63.3566 71.9514 63.2414 71.661 63.2414L71.6044 63.2037Z" fill="#341656"/>
<path d="M82.1195 75.6047C83.3641 75.5936 84.5775 75.2149 85.607 74.5165C86.6364 73.8181 87.4357 72.8311 87.9043 71.68C88.3729 70.5288 88.4896 69.265 88.24 68.0476C87.9903 66.8303 87.3854 65.714 86.5014 64.8393C85.6174 63.9647 84.4938 63.3707 83.2723 63.1324C82.0507 62.894 80.7859 63.022 79.637 63.5C78.4882 63.9781 77.5068 64.7849 76.8164 65.8188C76.126 66.8527 75.7576 68.0674 75.7576 69.31C75.7676 70.9862 76.4429 72.5901 77.6354 73.77C78.828 74.95 80.4405 75.6098 82.1195 75.6047ZM82.1195 73.4939C81.2906 73.4939 80.4803 73.2485 79.7911 72.7888C79.1019 72.3291 78.5648 71.6756 78.2476 70.9111C77.9304 70.1466 77.8474 69.3054 78.0091 68.4938C78.1708 67.6822 78.5699 66.9366 79.1561 66.3515C79.7422 65.7664 80.4889 65.3679 81.3019 65.2065C82.1148 65.045 82.9575 65.1279 83.7233 65.4445C84.4891 65.7612 85.1436 66.2975 85.6041 66.9855C86.0646 67.6736 86.3104 68.4825 86.3104 69.31C86.3129 69.8601 86.2062 70.4053 85.9965 70.9141C85.7868 71.4228 85.4782 71.885 85.0885 72.2741C84.6988 72.6631 84.2359 72.9711 83.7263 73.1805C83.2167 73.3899 82.6706 73.4964 82.1195 73.4939Z" fill="#341656"/>
</svg>
