<svg width="27" height="23" viewBox="0 0 27 23" fill="none" xmlns="http://www.w3.org/2000/svg">
<path d="M6.63006 1.15692C11.2014 0.759542 15.7986 0.759542 20.37 1.15692L22.5724 1.34837C24.0386 1.47582 25.2943 2.35034 25.9449 3.60127C26.0281 3.7613 25.9658 3.95506 25.8124 4.05L16.6745 9.70677C14.7147 10.92 12.2436 10.9454 10.2592 9.77285L1.06026 4.33713C0.911639 4.24931 0.843421 4.06853 0.910399 3.90943C1.50563 2.49547 2.84384 1.48605 4.42763 1.34837L6.63006 1.15692Z" fill="#29292B"/>
<path d="M0.902913 6.78502C0.675466 6.65062 0.385253 6.79525 0.358741 7.0581C-0.0112899 10.7267 0.0782677 14.4301 0.627414 18.0819C0.916913 20.0071 2.48813 21.483 4.42764 21.6516L6.63006 21.843C11.2014 22.2404 15.7986 22.2404 20.37 21.843L22.5724 21.6516C24.5119 21.483 26.0831 20.0071 26.3726 18.0819C26.9378 14.3237 27.0161 10.5109 26.6078 6.73747C26.5791 6.47276 26.284 6.33079 26.0576 6.47094L17.8259 11.5667C15.1744 13.2081 11.8311 13.2426 9.14633 11.6561L0.902913 6.78502Z" fill="#29292B"/>
</svg>
